<svg id="Laag_1" data-name="Laag 1" xmlns="http://www.w3.org/2000/svg" viewBox="0 0 128.34 128.34">
  <defs>
    <style>
      .cls-1 {
        fill: #8b6dae;
      }

      .cls-2 {
        fill: #fff;
      }
    </style>
  </defs>
  <title>sold out</title>
  <circle class="cls-1" cx="64.17" cy="64.17" r="64.17"/>
  <g>
    <path class="cls-2" d="M173,371.58l1.27,1a6.26,6.26,0,0,1,1.79,2.12,6,6,0,0,1,.53,2.59,7,7,0,0,1-.83,3.35,6.24,6.24,0,0,1-2.61,2.52,9.46,9.46,0,0,1-4.52,1A10.57,10.57,0,0,1,161,381L162.8,378l0,0,0,0a8.26,8.26,0,0,0,6.12,2.72,3.86,3.86,0,0,0,2.61-.79,2.94,2.94,0,0,0,.92-2.37,2.67,2.67,0,0,0-.39-1.43,4.69,4.69,0,0,0-1.35-1.3,17.72,17.72,0,0,0-2.65-1.4,12.08,12.08,0,0,1-4.53-3,6,6,0,0,1-1.41-3.92,5.27,5.27,0,0,1,.9-3,6.46,6.46,0,0,1,2.5-2.17,7.89,7.89,0,0,1,3.58-.8,9.25,9.25,0,0,1,3.85.74,10.23,10.23,0,0,1,3.09,2.29l-2,2.81,0,0a0,0,0,0,1,0,0,5,5,0,0,0-2.11-1.93,6.53,6.53,0,0,0-2.81-.6,3.83,3.83,0,0,0-1.69.34,2.57,2.57,0,0,0-1.08.9,2.27,2.27,0,0,0-.36,1.24,2.38,2.38,0,0,0,.42,1.39,4.7,4.7,0,0,0,1.41,1.25,29.56,29.56,0,0,0,2.92,1.57Zm-10.33,6.19v0s0,0,0,0l.19.09-.07.12Zm.65.16s0,0,0,0a.46.46,0,0,1-.18-.07l-.22-.1.07-.12.35.21Zm10.23-11.64a0,0,0,0,1,0,0,.31.31,0,0,1,.15.09l.21.14-.06.08-.33-.22Zm.61.3s0,0,0,0a.46.46,0,0,1-.21-.12l.1-.14A.69.69,0,0,1,174.17,366.59Z" transform="translate(-131.87 -324.81)"/>
    <path class="cls-2" d="M182.59,382.72a8.7,8.7,0,0,1-2.92-4.1,18,18,0,0,1-1-6.4,17.47,17.47,0,0,1,1-6.31,8.61,8.61,0,0,1,2.92-4,8.13,8.13,0,0,1,9.12,0,8.75,8.75,0,0,1,2.92,4,17.69,17.69,0,0,1,1,6.31,18.21,18.21,0,0,1-1,6.4,8.83,8.83,0,0,1-2.92,4.1,8.08,8.08,0,0,1-9.12,0Zm6.87-2.92a7.34,7.34,0,0,0,1.49-3.11,18.64,18.64,0,0,0,.52-4.68,16.11,16.11,0,0,0-.52-4.35,6.76,6.76,0,0,0-1.49-2.91,3.09,3.09,0,0,0-2.31-1,3.12,3.12,0,0,0-2.31,1,6.88,6.88,0,0,0-1.5,2.91,16.52,16.52,0,0,0-.52,4.35,19.12,19.12,0,0,0,.52,4.68,7.47,7.47,0,0,0,1.5,3.11,3,3,0,0,0,4.62,0Z" transform="translate(-131.87 -324.81)"/>
    <path class="cls-2" d="M198.24,361.05h4.41v.41a.89.89,0,0,0-.24.46,3.93,3.93,0,0,0,0,.86v17.31h10.2v3.39H198.24Z" transform="translate(-131.87 -324.81)"/>
    <path class="cls-2" d="M215.62,361.05h5.8a11.3,11.3,0,0,1,4.57.77,7.43,7.43,0,0,1,2.89,2.36,13.64,13.64,0,0,1,2.3,8.25c0,3.54-.82,6.26-2.47,8.18s-4.22,2.87-7.72,2.87h-5.37Zm5.3,19.27a5.55,5.55,0,0,0,4.68-2,9.29,9.29,0,0,0,1.54-5.8q0-8.11-5.86-8.12h-1.74v15.91Z" transform="translate(-131.87 -324.81)"/>
    <path class="cls-2" d="M173.59,415.72a8.7,8.7,0,0,1-2.92-4.1,18,18,0,0,1-1-6.4,17.47,17.47,0,0,1,1-6.31,8.61,8.61,0,0,1,2.92-4,8.13,8.13,0,0,1,9.12,0,8.75,8.75,0,0,1,2.92,4,17.69,17.69,0,0,1,1,6.31,18.21,18.21,0,0,1-1,6.4,8.83,8.83,0,0,1-2.92,4.1,8.08,8.08,0,0,1-9.12,0Zm6.87-2.92a7.34,7.34,0,0,0,1.49-3.11,18.64,18.64,0,0,0,.52-4.68,16.11,16.11,0,0,0-.52-4.35,6.76,6.76,0,0,0-1.49-2.91,3.09,3.09,0,0,0-2.31-1,3.12,3.12,0,0,0-2.31,1,6.88,6.88,0,0,0-1.5,2.91,16.52,16.52,0,0,0-.52,4.35,19.12,19.12,0,0,0,.52,4.68,7.47,7.47,0,0,0,1.5,3.11,3,3,0,0,0,4.62,0Z" transform="translate(-131.87 -324.81)"/>
    <path class="cls-2" d="M190.34,414.77a9.05,9.05,0,0,1-2-6.21V394.05h4.3v.41a1,1,0,0,0-.24.46,3.93,3.93,0,0,0,0,.86v12.81a7,7,0,0,0,.83,3.76,3.08,3.08,0,0,0,2.81,1.29,3.18,3.18,0,0,0,2.88-1.3,7.27,7.27,0,0,0,.83-3.85V394.05h4v14.4q0,4.26-2,6.4A7.44,7.44,0,0,1,196,417,7.14,7.14,0,0,1,190.34,414.77Z" transform="translate(-131.87 -324.81)"/>
    <path class="cls-2" d="M211.84,416.48V397.55h-6.08v-3.5h16.53v3.5H216v18.93Z" transform="translate(-131.87 -324.81)"/>
  </g>
</svg>
